<?xml version="1.0" encoding="UTF-8" standalone="no"?>
<svg
   xmlns:dc="http://purl.org/dc/elements/1.1/"
   xmlns:cc="http://creativecommons.org/ns#"
   xmlns:rdf="http://www.w3.org/1999/02/22-rdf-syntax-ns#"
   xmlns:svg="http://www.w3.org/2000/svg"
   xmlns="http://www.w3.org/2000/svg"
   xmlns:xlink="http://www.w3.org/1999/xlink"
   xmlns:sodipodi="http://sodipodi.sourceforge.net/DTD/sodipodi-0.dtd"
   xmlns:inkscape="http://www.inkscape.org/namespaces/inkscape"
   sodipodi:docname="avatar2.svg"
   inkscape:version="1.0 (4035a4f, 2020-05-01)"
   id="svg2705"
   version="1.1"
   viewBox="0 0 210 297"
   height="297mm"
   width="210mm">
  <defs
     id="defs2699">
    <linearGradient
       inkscape:collect="always"
       xlink:href="#linearGradient1168"
       id="linearGradient1518"
       gradientUnits="userSpaceOnUse"
       gradientTransform="translate(270.30954,-13.190906)"
       x1="3.5101109"
       y1="133.83308"
       x2="204.09393"
       y2="133.83308" />
    <linearGradient
       id="linearGradient1168"
       inkscape:collect="always">
      <stop
         id="stop1164"
         offset="0"
         style="stop-color:#000000;stop-opacity:1;" />
      <stop
         id="stop1166"
         offset="1"
         style="stop-color:#000000;stop-opacity:0;" />
    </linearGradient>
    <clipPath
       id="clipPath1531-5"
       clipPathUnits="userSpaceOnUse">
      <rect
         y="39.452377"
         x="330.00598"
         height="138.18588"
         width="159.05119"
         id="rect1533-7"
         style="opacity:1;fill:#000000;fill-opacity:1;stroke:#000000;stroke-width:0.074;stroke-dashoffset:10;stroke-opacity:1;paint-order:markers stroke fill" />
    </clipPath>
    <linearGradient
       inkscape:collect="always"
       xlink:href="#linearGradient1168"
       id="linearGradient1520"
       gradientUnits="userSpaceOnUse"
       gradientTransform="translate(270.30954,-13.190906)"
       x1="148.89111"
       y1="75.074654"
       x2="168.71078"
       y2="75.074654" />
    <clipPath
       id="clipPath1527-9"
       clipPathUnits="userSpaceOnUse">
      <rect
         y="39.452377"
         x="330.00598"
         height="138.18588"
         width="159.05119"
         id="rect1529-1"
         style="opacity:1;fill:#000000;fill-opacity:1;stroke:#000000;stroke-width:0.074;stroke-dashoffset:10;stroke-opacity:1;paint-order:markers stroke fill" />
    </clipPath>
    <linearGradient
       inkscape:collect="always"
       xlink:href="#linearGradient1168"
       id="linearGradient1522"
       gradientUnits="userSpaceOnUse"
       x1="370.13544"
       y1="61.814247"
       x2="389.90695"
       y2="61.814247" />
    <clipPath
       id="clipPath1523-3"
       clipPathUnits="userSpaceOnUse">
      <rect
         y="39.452377"
         x="330.00598"
         height="138.18588"
         width="159.05119"
         id="rect1525-4"
         style="opacity:1;fill:#000000;fill-opacity:1;stroke:#000000;stroke-width:0.074;stroke-dashoffset:10;stroke-opacity:1;paint-order:markers stroke fill" />
    </clipPath>
    <linearGradient
       inkscape:collect="always"
       xlink:href="#linearGradient1168"
       id="linearGradient1524"
       gradientUnits="userSpaceOnUse"
       gradientTransform="translate(270.30954,-13.190906)"
       x1="142.50549"
       y1="102.36651"
       x2="154.94814"
       y2="102.36651" />
    <clipPath
       id="clipPath1519-7"
       clipPathUnits="userSpaceOnUse">
      <rect
         y="39.452377"
         x="330.00598"
         height="138.18588"
         width="159.05119"
         id="rect1521-4"
         style="opacity:1;fill:#000000;fill-opacity:1;stroke:#000000;stroke-width:0.074;stroke-dashoffset:10;stroke-opacity:1;paint-order:markers stroke fill" />
    </clipPath>
    <linearGradient
       inkscape:collect="always"
       xlink:href="#linearGradient1168"
       id="linearGradient1526"
       gradientUnits="userSpaceOnUse"
       gradientTransform="translate(270.30954,-13.190906)"
       x1="116.25749"
       y1="102.24759"
       x2="128.75479"
       y2="102.24759" />
    <clipPath
       id="clipPath1515-9"
       clipPathUnits="userSpaceOnUse">
      <rect
         y="39.452377"
         x="330.00598"
         height="138.18588"
         width="159.05119"
         id="rect1517-4"
         style="opacity:1;fill:#000000;fill-opacity:1;stroke:#000000;stroke-width:0.074;stroke-dashoffset:10;stroke-opacity:1;paint-order:markers stroke fill" />
    </clipPath>
    <linearGradient
       inkscape:collect="always"
       xlink:href="#linearGradient1168"
       id="linearGradient1528"
       gradientUnits="userSpaceOnUse"
       gradientTransform="translate(270.30954,-13.190906)"
       x1="130.57292"
       y1="119.5925"
       x2="141.50125"
       y2="119.5925" />
    <clipPath
       id="clipPath1511-4"
       clipPathUnits="userSpaceOnUse">
      <rect
         y="39.452377"
         x="330.00598"
         height="138.18588"
         width="159.05119"
         id="rect1513-6"
         style="opacity:1;fill:#000000;fill-opacity:1;stroke:#000000;stroke-width:0.074;stroke-dashoffset:10;stroke-opacity:1;paint-order:markers stroke fill" />
    </clipPath>
    <linearGradient
       inkscape:collect="always"
       xlink:href="#linearGradient1168"
       id="linearGradient1530"
       gradientUnits="userSpaceOnUse"
       gradientTransform="translate(270.30954,-13.190906)"
       x1="129.9745"
       y1="127.00524"
       x2="136.29839"
       y2="127.00524" />
    <clipPath
       id="clipPath1507-85"
       clipPathUnits="userSpaceOnUse">
      <rect
         y="39.452377"
         x="330.00598"
         height="138.18588"
         width="159.05119"
         id="rect1509-9"
         style="opacity:1;fill:#000000;fill-opacity:1;stroke:#000000;stroke-width:0.074;stroke-dashoffset:10;stroke-opacity:1;paint-order:markers stroke fill" />
    </clipPath>
    <linearGradient
       inkscape:collect="always"
       xlink:href="#linearGradient1168"
       id="linearGradient1532"
       gradientUnits="userSpaceOnUse"
       gradientTransform="translate(270.30954,-13.190906)"
       x1="136.02959"
       y1="127.73916"
       x2="142.54413"
       y2="127.73916" />
    <clipPath
       id="clipPath1503-8"
       clipPathUnits="userSpaceOnUse">
      <rect
         y="39.452377"
         x="330.00598"
         height="138.18588"
         width="159.05119"
         id="rect1505-52"
         style="opacity:1;fill:#000000;fill-opacity:1;stroke:#000000;stroke-width:0.074;stroke-dashoffset:10;stroke-opacity:1;paint-order:markers stroke fill" />
    </clipPath>
    <linearGradient
       inkscape:collect="always"
       xlink:href="#linearGradient1168"
       id="linearGradient1534"
       gradientUnits="userSpaceOnUse"
       gradientTransform="translate(270.30954,-13.190906)"
       x1="107.72019"
       y1="125.66657"
       x2="155.63866"
       y2="125.66657" />
    <clipPath
       id="clipPath1499-3"
       clipPathUnits="userSpaceOnUse">
      <rect
         y="39.452377"
         x="330.00598"
         height="138.18588"
         width="159.05119"
         id="rect1501-1"
         style="opacity:1;fill:#000000;fill-opacity:1;stroke:#000000;stroke-width:0.074;stroke-dashoffset:10;stroke-opacity:1;paint-order:markers stroke fill" />
    </clipPath>
    <linearGradient
       inkscape:collect="always"
       xlink:href="#linearGradient1168"
       id="linearGradient1536"
       gradientUnits="userSpaceOnUse"
       gradientTransform="translate(270.30954,-13.190906)"
       x1="151.11562"
       y1="118.81539"
       x2="181.57726"
       y2="118.81539" />
    <clipPath
       id="clipPath1495-1"
       clipPathUnits="userSpaceOnUse">
      <rect
         y="39.452377"
         x="330.00598"
         height="138.18588"
         width="159.05119"
         id="rect1497-9"
         style="opacity:1;fill:#000000;fill-opacity:1;stroke:#000000;stroke-width:0.074;stroke-dashoffset:10;stroke-opacity:1;paint-order:markers stroke fill" />
    </clipPath>
    <linearGradient
       inkscape:collect="always"
       xlink:href="#linearGradient1168"
       id="linearGradient1538"
       gradientUnits="userSpaceOnUse"
       gradientTransform="translate(270.30954,-13.190906)"
       x1="150.38664"
       y1="129.08348"
       x2="184.286"
       y2="129.08348" />
    <clipPath
       id="clipPath1491-1"
       clipPathUnits="userSpaceOnUse">
      <rect
         y="39.452377"
         x="330.00598"
         height="138.18588"
         width="159.05119"
         id="rect1493-3"
         style="opacity:1;fill:#000000;fill-opacity:1;stroke:#000000;stroke-width:0.074;stroke-dashoffset:10;stroke-opacity:1;paint-order:markers stroke fill" />
    </clipPath>
    <linearGradient
       inkscape:collect="always"
       xlink:href="#linearGradient1168"
       id="linearGradient1540"
       gradientUnits="userSpaceOnUse"
       gradientTransform="translate(270.30954,-13.190906)"
       x1="150.14613"
       y1="133.43153"
       x2="170.52055"
       y2="133.43153" />
    <clipPath
       id="clipPath1487-6"
       clipPathUnits="userSpaceOnUse">
      <rect
         y="39.452377"
         x="330.00598"
         height="138.18588"
         width="159.05119"
         id="rect1489-9"
         style="opacity:1;fill:#000000;fill-opacity:1;stroke:#000000;stroke-width:0.074;stroke-dashoffset:10;stroke-opacity:1;paint-order:markers stroke fill" />
    </clipPath>
    <linearGradient
       inkscape:collect="always"
       xlink:href="#linearGradient1168"
       id="linearGradient1542"
       gradientUnits="userSpaceOnUse"
       gradientTransform="translate(270.30954,-13.190906)"
       x1="150.81923"
       y1="134.60072"
       x2="173.28746"
       y2="134.60072" />
    <clipPath
       id="clipPath1483-13"
       clipPathUnits="userSpaceOnUse">
      <rect
         y="39.452377"
         x="330.00598"
         height="138.18588"
         width="159.05119"
         id="rect1485-4"
         style="opacity:1;fill:#000000;fill-opacity:1;stroke:#000000;stroke-width:0.074;stroke-dashoffset:10;stroke-opacity:1;paint-order:markers stroke fill" />
    </clipPath>
    <linearGradient
       inkscape:collect="always"
       xlink:href="#linearGradient1168"
       id="linearGradient1544"
       gradientUnits="userSpaceOnUse"
       gradientTransform="translate(270.30954,-13.190906)"
       x1="149.20255"
       y1="142.49063"
       x2="163.80331"
       y2="142.49063" />
    <clipPath
       id="clipPath1479-9"
       clipPathUnits="userSpaceOnUse">
      <rect
         y="39.452377"
         x="330.00598"
         height="138.18588"
         width="159.05119"
         id="rect1481-8"
         style="opacity:1;fill:#000000;fill-opacity:1;stroke:#000000;stroke-width:0.074;stroke-dashoffset:10;stroke-opacity:1;paint-order:markers stroke fill" />
    </clipPath>
    <linearGradient
       inkscape:collect="always"
       xlink:href="#linearGradient1168"
       id="linearGradient1546"
       gradientUnits="userSpaceOnUse"
       gradientTransform="translate(270.30954,-13.190906)"
       x1="152.13113"
       y1="127.89142"
       x2="178.42004"
       y2="127.89142" />
    <clipPath
       id="clipPath1475-17"
       clipPathUnits="userSpaceOnUse">
      <rect
         y="39.452377"
         x="330.00598"
         height="138.18588"
         width="159.05119"
         id="rect1477-9"
         style="opacity:1;fill:#000000;fill-opacity:1;stroke:#000000;stroke-width:0.074;stroke-dashoffset:10;stroke-opacity:1;paint-order:markers stroke fill" />
    </clipPath>
    <linearGradient
       inkscape:collect="always"
       xlink:href="#linearGradient1168"
       id="linearGradient1548"
       gradientUnits="userSpaceOnUse"
       gradientTransform="translate(270.30954,-13.190906)"
       x1="85.175705"
       y1="119.47737"
       x2="122.64256"
       y2="119.47737" />
    <clipPath
       id="clipPath1471-3"
       clipPathUnits="userSpaceOnUse">
      <rect
         y="39.452377"
         x="330.00598"
         height="138.18588"
         width="159.05119"
         id="rect1473-0"
         style="opacity:1;fill:#000000;fill-opacity:1;stroke:#000000;stroke-width:0.074;stroke-dashoffset:10;stroke-opacity:1;paint-order:markers stroke fill" />
    </clipPath>
    <linearGradient
       inkscape:collect="always"
       xlink:href="#linearGradient1168"
       id="linearGradient1550"
       gradientUnits="userSpaceOnUse"
       gradientTransform="translate(270.30954,-13.190906)"
       x1="87.96946"
       y1="119.33583"
       x2="119.83336"
       y2="119.33583" />
    <clipPath
       id="clipPath1467-3"
       clipPathUnits="userSpaceOnUse">
      <rect
         y="39.452377"
         x="330.00598"
         height="138.18588"
         width="159.05119"
         id="rect1469-2"
         style="opacity:1;fill:#000000;fill-opacity:1;stroke:#000000;stroke-width:0.074;stroke-dashoffset:10;stroke-opacity:1;paint-order:markers stroke fill" />
    </clipPath>
    <linearGradient
       inkscape:collect="always"
       xlink:href="#linearGradient1168"
       id="linearGradient1552"
       gradientUnits="userSpaceOnUse"
       gradientTransform="translate(270.30954,-13.190906)"
       x1="81.463791"
       y1="134.53098"
       x2="122.74857"
       y2="134.53098" />
    <clipPath
       id="clipPath1463-6"
       clipPathUnits="userSpaceOnUse">
      <rect
         y="39.452377"
         x="330.00598"
         height="138.18588"
         width="159.05119"
         id="rect1465-5"
         style="opacity:1;fill:#000000;fill-opacity:1;stroke:#000000;stroke-width:0.074;stroke-dashoffset:10;stroke-opacity:1;paint-order:markers stroke fill" />
    </clipPath>
    <linearGradient
       inkscape:collect="always"
       xlink:href="#linearGradient1168"
       id="linearGradient1554"
       gradientUnits="userSpaceOnUse"
       gradientTransform="translate(270.30954,-13.190906)"
       x1="78.028183"
       y1="132.68231"
       x2="120.75102"
       y2="132.68231" />
    <clipPath
       id="clipPath1459-9"
       clipPathUnits="userSpaceOnUse">
      <rect
         y="39.452377"
         x="330.00598"
         height="138.18588"
         width="159.05119"
         id="rect1461-2"
         style="opacity:1;fill:#000000;fill-opacity:1;stroke:#000000;stroke-width:0.074;stroke-dashoffset:10;stroke-opacity:1;paint-order:markers stroke fill" />
    </clipPath>
    <linearGradient
       inkscape:collect="always"
       xlink:href="#linearGradient1168"
       id="linearGradient1556"
       gradientUnits="userSpaceOnUse"
       gradientTransform="translate(270.30954,-13.190906)"
       x1="89.037086"
       y1="130.88454"
       x2="121.55617"
       y2="130.88454" />
    <clipPath
       id="clipPath1455-3"
       clipPathUnits="userSpaceOnUse">
      <rect
         y="39.452377"
         x="330.00598"
         height="138.18588"
         width="159.05119"
         id="rect1457-7"
         style="opacity:1;fill:#000000;fill-opacity:1;stroke:#000000;stroke-width:0.074;stroke-dashoffset:10;stroke-opacity:1;paint-order:markers stroke fill" />
    </clipPath>
    <linearGradient
       inkscape:collect="always"
       xlink:href="#linearGradient1168"
       id="linearGradient1558"
       gradientUnits="userSpaceOnUse"
       gradientTransform="translate(270.30954,-13.190906)"
       x1="89.325226"
       y1="138.74776"
       x2="127.61006"
       y2="138.74776" />
    <clipPath
       id="clipPath1451-8"
       clipPathUnits="userSpaceOnUse">
      <rect
         y="39.452377"
         x="330.00598"
         height="138.18588"
         width="159.05119"
         id="rect1453-4"
         style="opacity:1;fill:#000000;fill-opacity:1;stroke:#000000;stroke-width:0.074;stroke-dashoffset:10;stroke-opacity:1;paint-order:markers stroke fill" />
    </clipPath>
    <linearGradient
       inkscape:collect="always"
       xlink:href="#linearGradient1168"
       id="linearGradient1560"
       gradientUnits="userSpaceOnUse"
       gradientTransform="translate(270.30954,-13.190906)"
       x1="118.53304"
       y1="134.21414"
       x2="127.06"
       y2="134.21414" />
    <clipPath
       id="clipPath1447-7"
       clipPathUnits="userSpaceOnUse">
      <rect
         y="39.452377"
         x="330.00598"
         height="138.18588"
         width="159.05119"
         id="rect1449-3"
         style="opacity:1;fill:#000000;fill-opacity:1;stroke:#000000;stroke-width:0.074;stroke-dashoffset:10;stroke-opacity:1;paint-order:markers stroke fill" />
    </clipPath>
    <linearGradient
       inkscape:collect="always"
       xlink:href="#linearGradient1168"
       id="linearGradient1562"
       gradientUnits="userSpaceOnUse"
       gradientTransform="translate(270.30954,-13.190906)"
       x1="112.76972"
       y1="137.78783"
       x2="124.06333"
       y2="137.78783" />
    <clipPath
       id="clipPath1443-6"
       clipPathUnits="userSpaceOnUse">
      <rect
         y="39.452377"
         x="330.00598"
         height="138.18588"
         width="159.05119"
         id="rect1445-3"
         style="opacity:1;fill:#000000;fill-opacity:1;stroke:#000000;stroke-width:0.074;stroke-dashoffset:10;stroke-opacity:1;paint-order:markers stroke fill" />
    </clipPath>
    <linearGradient
       inkscape:collect="always"
       xlink:href="#linearGradient1168"
       id="linearGradient1564"
       gradientUnits="userSpaceOnUse"
       gradientTransform="translate(270.30954,-13.190906)"
       x1="106.63235"
       y1="138.83582"
       x2="123.97966"
       y2="138.83582" />
    <clipPath
       id="clipPath1439-6"
       clipPathUnits="userSpaceOnUse">
      <rect
         y="39.452377"
         x="330.00598"
         height="138.18588"
         width="159.05119"
         id="rect1441-92"
         style="opacity:1;fill:#000000;fill-opacity:1;stroke:#000000;stroke-width:0.074;stroke-dashoffset:10;stroke-opacity:1;paint-order:markers stroke fill" />
    </clipPath>
    <linearGradient
       inkscape:collect="always"
       xlink:href="#linearGradient1168"
       id="linearGradient1566"
       gradientUnits="userSpaceOnUse"
       gradientTransform="translate(270.30954,-13.190906)"
       x1="105.41779"
       y1="137.60582"
       x2="121.64338"
       y2="137.60582" />
    <clipPath
       id="clipPath1435-7"
       clipPathUnits="userSpaceOnUse">
      <rect
         y="39.452377"
         x="330.00598"
         height="138.18588"
         width="159.05119"
         id="rect1437-2"
         style="opacity:1;fill:#000000;fill-opacity:1;stroke:#000000;stroke-width:0.074;stroke-dashoffset:10;stroke-opacity:1;paint-order:markers stroke fill" />
    </clipPath>
    <linearGradient
       inkscape:collect="always"
       xlink:href="#linearGradient1168"
       id="linearGradient1568"
       gradientUnits="userSpaceOnUse"
       gradientTransform="translate(270.30954,-13.190906)"
       x1="92.046463"
       y1="139.85938"
       x2="119.08739"
       y2="139.85938" />
    <clipPath
       id="clipPath1431-0"
       clipPathUnits="userSpaceOnUse">
      <rect
         y="39.452377"
         x="330.00598"
         height="138.18588"
         width="159.05119"
         id="rect1433-8"
         style="opacity:1;fill:#000000;fill-opacity:1;stroke:#000000;stroke-width:0.074;stroke-dashoffset:10;stroke-opacity:1;paint-order:markers stroke fill" />
    </clipPath>
    <linearGradient
       inkscape:collect="always"
       xlink:href="#linearGradient1168"
       id="linearGradient1570"
       gradientUnits="userSpaceOnUse"
       gradientTransform="translate(270.30954,-13.190906)"
       x1="98.002785"
       y1="140.54054"
       x2="125.8429"
       y2="140.54054" />
    <clipPath
       id="clipPath1427-4"
       clipPathUnits="userSpaceOnUse">
      <rect
         y="39.452377"
         x="330.00598"
         height="138.18588"
         width="159.05119"
         id="rect1429-5"
         style="opacity:1;fill:#000000;fill-opacity:1;stroke:#000000;stroke-width:0.074;stroke-dashoffset:10;stroke-opacity:1;paint-order:markers stroke fill" />
    </clipPath>
    <linearGradient
       inkscape:collect="always"
       xlink:href="#linearGradient1168"
       id="linearGradient1572"
       gradientUnits="userSpaceOnUse"
       gradientTransform="translate(270.30954,-13.190906)"
       x1="76.459641"
       y1="171.37315"
       x2="87.481918"
       y2="171.37315" />
    <clipPath
       id="clipPath1423-3"
       clipPathUnits="userSpaceOnUse">
      <rect
         y="39.452377"
         x="330.00598"
         height="138.18588"
         width="159.05119"
         id="rect1425-5"
         style="opacity:1;fill:#000000;fill-opacity:1;stroke:#000000;stroke-width:0.074;stroke-dashoffset:10;stroke-opacity:1;paint-order:markers stroke fill" />
    </clipPath>
    <linearGradient
       inkscape:collect="always"
       xlink:href="#linearGradient1168"
       id="linearGradient1574"
       gradientUnits="userSpaceOnUse"
       gradientTransform="translate(270.30954,-13.190906)"
       x1="117.29662"
       y1="177.10954"
       x2="177.98535"
       y2="177.10954" />
    <clipPath
       id="clipPath1419-5"
       clipPathUnits="userSpaceOnUse">
      <rect
         y="39.452377"
         x="330.00598"
         height="138.18588"
         width="159.05119"
         id="rect1421-4"
         style="opacity:1;fill:#000000;fill-opacity:1;stroke:#000000;stroke-width:0.074;stroke-dashoffset:10;stroke-opacity:1;paint-order:markers stroke fill" />
    </clipPath>
    <linearGradient
       inkscape:collect="always"
       xlink:href="#linearGradient1168"
       id="linearGradient1576"
       gradientUnits="userSpaceOnUse"
       gradientTransform="translate(270.30954,-13.190906)"
       x1="143.98004"
       y1="166.46635"
       x2="148.74019"
       y2="166.46635" />
    <clipPath
       id="clipPath1415-2"
       clipPathUnits="userSpaceOnUse">
      <rect
         y="39.452377"
         x="330.00598"
         height="138.18588"
         width="159.05119"
         id="rect1417-5"
         style="opacity:1;fill:#000000;fill-opacity:1;stroke:#000000;stroke-width:0.074;stroke-dashoffset:10;stroke-opacity:1;paint-order:markers stroke fill" />
    </clipPath>
    <linearGradient
       inkscape:collect="always"
       xlink:href="#linearGradient1168"
       id="linearGradient1578"
       gradientUnits="userSpaceOnUse"
       gradientTransform="translate(270.30954,-13.190906)"
       x1="162.40561"
       y1="172.35394"
       x2="167.55553"
       y2="172.35394" />
    <clipPath
       id="clipPath1411-9"
       clipPathUnits="userSpaceOnUse">
      <rect
         y="39.452377"
         x="330.00598"
         height="138.18588"
         width="159.05119"
         id="rect1413-4"
         style="opacity:1;fill:#000000;fill-opacity:1;stroke:#000000;stroke-width:0.074;stroke-dashoffset:10;stroke-opacity:1;paint-order:markers stroke fill" />
    </clipPath>
    <clipPath
       id="clipPath1407-0"
       clipPathUnits="userSpaceOnUse">
      <rect
         y="39.452377"
         x="330.00598"
         height="138.18588"
         width="159.05119"
         id="rect1409-4"
         style="opacity:1;fill:#000000;fill-opacity:1;stroke:#000000;stroke-width:0.074;stroke-dashoffset:10;stroke-opacity:1;paint-order:markers stroke fill" />
    </clipPath>
    <clipPath
       id="clipPath1395-0"
       clipPathUnits="userSpaceOnUse">
      <rect
         y="39.452377"
         x="330.00598"
         height="138.18588"
         width="159.05119"
         id="rect1397-5"
         style="opacity:1;fill:#000000;fill-opacity:1;stroke:#000000;stroke-width:0.074;stroke-dashoffset:10;stroke-opacity:1;paint-order:markers stroke fill" />
    </clipPath>
    <clipPath
       id="clipPath1391-35"
       clipPathUnits="userSpaceOnUse">
      <rect
         y="39.452377"
         x="330.00598"
         height="138.18588"
         width="159.05119"
         id="rect1393-0"
         style="opacity:1;fill:#000000;fill-opacity:1;stroke:#000000;stroke-width:0.074;stroke-dashoffset:10;stroke-opacity:1;paint-order:markers stroke fill" />
    </clipPath>
  </defs>
  <sodipodi:namedview
     inkscape:window-maximized="0"
     inkscape:window-y="27"
     inkscape:window-x="960"
     inkscape:window-height="1016"
     inkscape:window-width="960"
     showgrid="false"
     inkscape:document-rotation="0"
     inkscape:current-layer="layer1"
     inkscape:document-units="mm"
     inkscape:cy="560"
     inkscape:cx="400"
     inkscape:zoom="0.35"
     inkscape:pageshadow="2"
     inkscape:pageopacity="0.0"
     borderopacity="1.0"
     bordercolor="#666666"
     pagecolor="#ffffff"
     id="base" />
  <metadata
     id="metadata2702">
    <rdf:RDF>
      <cc:Work
         rdf:about="">
        <dc:format>image/svg+xml</dc:format>
        <dc:type
           rdf:resource="http://purl.org/dc/dcmitype/StillImage" />
        <dc:title></dc:title>
      </cc:Work>
    </rdf:RDF>
  </metadata>
  <g
     id="layer1"
     inkscape:groupmode="layer"
     inkscape:label="Layer 1">
    <path
       style="fill:#e63946;fill-opacity:1;stroke:#000000;stroke-width:0.152684;stroke-dashoffset:10;paint-order:markers stroke fill"
       d="M 236.43044,155.36745 A 124.94599,121.13298 0 0 1 111.48446,276.50044 124.94599,121.13298 0 0 1 -13.461537,155.36745 124.94599,121.13298 0 0 1 111.48446,34.234467 124.94599,121.13298 0 0 1 236.43044,155.36745 Z"
       id="path1438"
       inkscape:export-filename="/home/fjss23/avatar.svg.png"
       inkscape:export-xdpi="93.353203"
       inkscape:export-ydpi="93.353203" />
    <path
       id="path1440"
       d="m 414.26089,61.903801 3.56086,-1.493324 1.88239,-0.877242 4.35133,-4.964482 4.61601,-5.249037 3.42245,-2.973539 2.02901,-1.069599 1.63968,-0.128939 1.46133,-0.181544 1.63325,1.536567 0.91956,3.38386 0.23804,2.206712 -0.16079,2.481218 0.052,4.31289 -0.24971,3.850175 -1.44889,4.124277 -0.0949,3.123073 -0.18391,2.407852 -0.78576,3.137073 -0.56919,1.235212 -0.12964,1.102948 0.60398,1.248919 0.50333,1.929205 0.64128,2.573423 -0.48735,1.345206 -0.12127,4.197219 0.14033,6.66615 -1.1434,8.743866 -1.61992,8.4734 -0.2687,6.20425 -0.2318,7.19523 2.40381,3.90798 3.15679,6.32257 1.27135,5.13832 -1.17124,5.91121 -2.24386,6.75492 -0.21921,1.00387 0.15441,0.85502 2.04882,2.31526 3.38851,1.5385 7.15644,2.26663 3.59867,2.13112 2.82274,1.05248 5.07764,-0.68247 2.72798,-1.09634 1.08714,0.12525 1.16096,0.71617 3.20022,0.669 1.93523,1.74452 1.96155,2.64727 0.27197,0.95613 -2.52905,1.76136 -3.54696,1.69173 -3.04991,-0.55337 -1.6644,0.54694 -6.41598,-0.3172 -1.29347,-2.103 -1.48723,-0.92963 1.45465,1.28981 1.00128,1.89704 -0.53714,1.67255 -1.62936,1.74101 1.60401,7.95326 1.73155,4.40874 1.92854,6.38383 -26.52985,0.15922 -3.07955,-3.82919 -2.72928,-3.27526 -4.58227,-3.6808 -3.79932,-2.45223 -5.81832,-1.58497 -6.50612,-0.94051 -7.85568,-0.46786 -6.71132,0.0418 -7.42619,-0.12058 c 0,0 -5.88144,-0.40649 -6.19218,-0.46618 -0.31074,-0.0597 -4.56354,-2.24214 -4.56354,-2.24214 l -13.36329,-0.73503 -6.05351,-0.66287 -6.5772,0.20045 c 0,0 -7.37161,0.12863 -8.2014,0.19544 -0.82979,0.0668 -10.41043,0.20046 -10.41043,0.20046 l -4.25105,-0.92107 -10.27212,0.5631 -6.03616,-0.74231 -4.45134,0.87034 -7.20313,0.11795 c 0,0 -4.58213,-1.19 -5.03441,-1.19 -0.45229,0 -6.00588,0.88513 -6.00588,0.88513 l -5.9758,0.50927 -6.10333,-1.91902 -0.13205,-58.89226 6.23943,-0.44398 7.78085,0.0126 6.25054,-0.40214 6.41598,-0.42985 5.838,0.0552 9.54491,-1.73703 4.47708,-0.8729 c 0,0 6.51602,0.14539 6.88473,0.14539 0.3687,0 13.14118,0.52036 13.14118,0.52036 0,0 -0.78554,-0.4095 6.64522,-0.14515 l 8.06633,0.48412 9.66601,-2.46984 5.55234,-3.7657 2.70309,-6.43219 -1.23092,-5.830336 0.5359,-5.8494 -0.8967,-5.021026 0.38603,-3.414048 0.86651,-2.273437 -0.40117,-2.914931 -0.613,-1.073221 -0.5372,-3.61955 0.23266,-1.119093 -0.49558,-3.954558 -1.32351,-3.655152 -0.46687,-2.249088 0.14119,-2.924639 -0.52006,-7.100195 0.59069,-2.691379 0.9934,-1.054939 1.43942,-0.554996 1.89775,0.533705 2.42752,1.737939 3.51741,4.337056 3.18997,3.402128 3.10064,1.855438 2.18286,2.297361 2.22559,0.68706 3.55786,2.002626 2.96482,0.216206 3.04135,-0.584481 1.92965,-0.772633 2.96172,-0.382312 2.90542,0.26727 3.16115,0.952735 z"
       style="fill:#000000;fill-opacity:1;stroke:url(#linearGradient1518);stroke-width:0.264583px;stroke-linecap:butt;stroke-linejoin:miter;stroke-opacity:1"
       clip-path="url(#clipPath1531-5)"
       sodipodi:nodetypes="cccccccccccccccccccccccccccccccccccccccccccccccccccccccccccccccccccccccccccsccccsccccccscccccccccccscccccccccccccccccccccccccccccccccccccc"
       inkscape:export-filename="/home/fjss23/avatar.svg.png"
       inkscape:export-xdpi="93.353203"
       inkscape:export-ydpi="93.353203"
       transform="matrix(1.5107519,0,0,1.5107519,-512.57253,-13.52951)" />
    <path
       id="path1442"
       d="m 419.37064,65.061371 3.63131,2.721776 3.45603,4.352605 5.12373,4.155387 2.73695,0.208569 1.29461,-0.499216 1.47318,-5.366404 0.12166,-3.551044 1.67193,-5.318181 0.008,-6.735378 -0.0854,-4.885098 -1.57352,-2.048663 -2.23898,-0.825 -2.56297,0.519994 -2.97866,2.601806 -2.63857,3.059711 -3.15524,4.225692 -1.51879,3.843578 -1.92102,1.951649 z"
       style="fill:#457b9d;fill-opacity:1;stroke:url(#linearGradient1520);stroke-width:0.264583px;stroke-linecap:butt;stroke-linejoin:miter;stroke-opacity:1"
       clip-path="url(#clipPath1527-9)"
       inkscape:export-filename="/home/fjss23/avatar.svg.png"
       inkscape:export-xdpi="93.353203"
       inkscape:export-ydpi="93.353203"
       transform="matrix(1.5107519,0,0,1.5107519,-512.57253,-13.52951)" />
    <path
       id="path1444"
       d="m 389.46181,64.660876 -4.96679,2.820228 -5.08572,4.119131 -0.91696,2.452188 -1.86468,2.411473 -2.29047,-0.196744 -1.45268,-4.84228 -0.2487,-4.287795 -1.44694,-5.545669 -0.84029,-1.873247 -0.0805,-4.436671 0.82118,-2.899132 -0.0945,-2.769243 0.0262,-1.705676 0.82215,-0.730766 2.20772,0.751004 2.02957,2.116452 2.07054,2.117788 1.08384,2.701679 1.88996,2.846009 3.22759,2.417019 3.54532,1.903318 1.86993,1.262573 -0.1302,1.322355 z"
       style="fill:#457b9d;fill-opacity:1;stroke:url(#linearGradient1522);stroke-width:0.264583px;stroke-linecap:butt;stroke-linejoin:miter;stroke-opacity:1"
       clip-path="url(#clipPath1523-3)"
       inkscape:export-filename="/home/fjss23/avatar.svg.png"
       inkscape:export-xdpi="93.353203"
       inkscape:export-ydpi="93.353203"
       transform="matrix(1.5107519,0,0,1.5107519,-512.57253,-13.52951)" />
    <path
       id="path1446"
       d="m 412.94732,94.601444 0.001,-2.5348 0.88931,-5.07321 2.68714,-2.281531 3.33274,-0.88352 3.66742,0.553614 1.59569,1.219822 -0.20744,2.898445 -1.98026,3.17585 -2.40209,1.21677 -3.52876,0.40642 -2.27788,-1.08716 -0.61555,-0.0809 z"
       style="fill:#ffff00;fill-opacity:1;stroke:url(#linearGradient1524);stroke-width:0.264583px;stroke-linecap:butt;stroke-linejoin:miter;stroke-opacity:1"
       clip-path="url(#clipPath1519-7)"
       inkscape:export-filename="/home/fjss23/avatar.svg.png"
       inkscape:export-xdpi="93.353203"
       inkscape:export-ydpi="93.353203"
       transform="matrix(1.5107519,0,0,1.5107519,-512.57253,-13.52951)" />
    <path
       id="path1448"
       d="m 398.86991,93.829994 -0.61387,-3.33751 -1.30827,-4.064509 -3.04019,-2.033982 -2.39144,-0.302908 -3.29488,0.44767 -1.52138,1.214292 0.0238,2.724447 1.92019,3.25824 2.73103,1.28871 2.6048,0.23623 2.76801,-1.13433 z"
       style="fill:#ffff00;fill-opacity:1;stroke:url(#linearGradient1526);stroke-width:0.264583px;stroke-linecap:butt;stroke-linejoin:miter;stroke-opacity:1"
       clip-path="url(#clipPath1515-9)"
       inkscape:export-filename="/home/fjss23/avatar.svg.png"
       inkscape:export-xdpi="93.353203"
       inkscape:export-ydpi="93.353203"
       transform="matrix(1.5107519,0,0,1.5107519,-512.57253,-13.52951)" />
    <path
       id="path1450"
       d="m 403.08705,102.62972 1.47342,0.38752 1.91526,0.15847 2.46351,-0.51914 1.69356,-0.3813 1.00924,0.72767 0.0356,1.67973 -0.93673,1.39024 -1.93803,0.51533 -0.90913,1.16146 -0.84287,1.95519 -0.59902,0.74803 -1.41171,-1.9171 -0.32707,-1.33212 -1.22963,-0.87697 -1.79943,-0.94239 -0.64346,-1.06309 0.9346,-1.31822 z"
       style="fill:#f9f9f9;fill-opacity:1;stroke:url(#linearGradient1528);stroke-width:0.264583px;stroke-linecap:butt;stroke-linejoin:miter;stroke-opacity:1"
       clip-path="url(#clipPath1511-4)"
       inkscape:export-filename="/home/fjss23/avatar.svg.png"
       inkscape:export-xdpi="93.353203"
       inkscape:export-ydpi="93.353203"
       transform="matrix(1.5107519,0,0,1.5107519,-512.57253,-13.52951)" />
    <path
       id="path1452"
       d="m 406.47576,111.71654 -0.0711,1.5728 -1.67879,1.17224 -4.40358,1.32987"
       style="fill:#ffffff;fill-opacity:1;stroke:url(#linearGradient1530);stroke-width:0.264583px;stroke-linecap:butt;stroke-linejoin:miter;stroke-opacity:1"
       clip-path="url(#clipPath1507-85)"
       inkscape:export-filename="/home/fjss23/avatar.svg.png"
       inkscape:export-xdpi="93.353203"
       inkscape:export-ydpi="93.353203"
       transform="matrix(1.5107519,0,0,1.5107519,-512.57253,-13.52951)" />
    <path
       id="path1454"
       d="m 406.40931,113.3241 2.50168,1.5659 3.91412,0.86536"
       style="fill:#ffffff;fill-opacity:1;stroke:url(#linearGradient1532);stroke-width:0.264583px;stroke-linecap:butt;stroke-linejoin:miter;stroke-opacity:1"
       clip-path="url(#clipPath1503-8)"
       inkscape:export-filename="/home/fjss23/avatar.svg.png"
       inkscape:export-xdpi="93.353203"
       inkscape:export-ydpi="93.353203"
       transform="matrix(1.5107519,0,0,1.5107519,-512.57253,-13.52951)" />
    <path
       id="path1456"
       d="m 425.83352,105.81922 -5.54163,9.63606 -9.50006,4.75418 -8.13521,0.85463 -8.76176,-3.79416 -5.28078,-6.65315 -6.29822,-5.49777 -4.24907,-1.23999"
       style="fill:#000000;fill-opacity:1;stroke:url(#linearGradient1534);stroke-width:0.264583px;stroke-linecap:butt;stroke-linejoin:miter;stroke-opacity:1"
       clip-path="url(#clipPath1499-3)"
       inkscape:export-filename="/home/fjss23/avatar.svg.png"
       inkscape:export-xdpi="93.353203"
       inkscape:export-ydpi="93.353203"
       transform="matrix(1.5107519,0,0,1.5107519,-512.57253,-13.52951)" />
    <path
       id="path1458"
       d="m 421.44218,106.39277 12.0162,-1.55998 12.03601,0.60955 6.37238,0.97578"
       style="fill:#ffffff;fill-opacity:1;stroke:url(#linearGradient1536);stroke-width:0.264583px;stroke-linecap:butt;stroke-linejoin:miter;stroke-opacity:1"
       clip-path="url(#clipPath1495-1)"
       inkscape:export-filename="/home/fjss23/avatar.svg.png"
       inkscape:export-xdpi="93.353203"
       inkscape:export-ydpi="93.353203"
       transform="matrix(1.5107519,0,0,1.5107519,-512.57253,-13.52951)" />
    <path
       id="path1460"
       d="m 420.71359,109.3416 13.24006,1.75658 10.32158,4.06695 10.24351,7.30183"
       style="fill:#ffffff;fill-opacity:1;stroke:url(#linearGradient1538);stroke-width:0.264583px;stroke-linecap:butt;stroke-linejoin:miter;stroke-opacity:1"
       clip-path="url(#clipPath1491-1)"
       inkscape:export-filename="/home/fjss23/avatar.svg.png"
       inkscape:export-xdpi="93.353203"
       inkscape:export-ydpi="93.353203"
       transform="matrix(1.5107519,0,0,1.5107519,-512.57253,-13.52951)" />
    <path
       id="path1462"
       d="m 420.52434,110.99479 8.43757,5.12272 8.30219,8.38388 3.45702,5.02314"
       style="fill:#ffffff;fill-opacity:1;stroke:url(#linearGradient1540);stroke-width:0.264583px;stroke-linecap:butt;stroke-linejoin:miter;stroke-opacity:1"
       clip-path="url(#clipPath1487-6)"
       inkscape:export-filename="/home/fjss23/avatar.svg.png"
       inkscape:export-xdpi="93.353203"
       inkscape:export-ydpi="93.353203"
       transform="matrix(1.5107519,0,0,1.5107519,-512.57253,-13.52951)" />
    <path
       id="path1464"
       d="m 421.21325,112.45502 11.11209,9.22183 7.98653,6.91643 3.22179,1.757"
       style="fill:#ffffff;fill-opacity:1;stroke:url(#linearGradient1542);stroke-width:0.264583px;stroke-linecap:butt;stroke-linejoin:miter;stroke-opacity:1"
       clip-path="url(#clipPath1483-13)"
       inkscape:export-filename="/home/fjss23/avatar.svg.png"
       inkscape:export-xdpi="93.353203"
       inkscape:export-ydpi="93.353203"
       transform="matrix(1.5107519,0,0,1.5107519,-512.57253,-13.52951)" />
    <path
       id="path1466"
       d="m 419.62057,113.11944 7.49257,10.7361 5.12692,11.75304 1.74249,9.92426"
       style="fill:#ffffff;fill-opacity:1;stroke:url(#linearGradient1544);stroke-width:0.264583px;stroke-linecap:butt;stroke-linejoin:miter;stroke-opacity:1"
       clip-path="url(#clipPath1479-9)"
       inkscape:export-filename="/home/fjss23/avatar.svg.png"
       inkscape:export-xdpi="93.353203"
       inkscape:export-ydpi="93.353203"
       transform="matrix(1.5107519,0,0,1.5107519,-512.57253,-13.52951)" />
    <path
       id="path1468"
       d="m 422.49137,108.90906 12.3053,5.10539 12.8501,5.12349 0.97421,1.40068"
       style="fill:#ffffff;fill-opacity:1;stroke:url(#linearGradient1546);stroke-width:0.264583px;stroke-linecap:butt;stroke-linejoin:miter;stroke-opacity:1"
       clip-path="url(#clipPath1475-17)"
       inkscape:export-filename="/home/fjss23/avatar.svg.png"
       inkscape:export-xdpi="93.353203"
       inkscape:export-ydpi="93.353203"
       transform="matrix(1.5107519,0,0,1.5107519,-512.57253,-13.52951)" />
    <path
       id="path1470"
       d="m 392.94695,105.71177 -16.05797,-0.62591 -16.996,1.51656 -4.38147,0.8875"
       style="fill:#ffffff;fill-opacity:1;stroke:url(#linearGradient1548);stroke-width:0.264583px;stroke-linecap:butt;stroke-linejoin:miter;stroke-opacity:1"
       clip-path="url(#clipPath1471-3)"
       inkscape:export-filename="/home/fjss23/avatar.svg.png"
       inkscape:export-xdpi="93.353203"
       inkscape:export-ydpi="93.353203"
       transform="matrix(1.5107519,0,0,1.5107519,-512.57253,-13.52951)" />
    <path
       id="path1472"
       d="m 390.13739,106.49269 -10.70973,0.44685 -11.95514,0.21788 -6.85812,-2.02398 -2.32605,0.1648"
       style="fill:#ffffff;fill-opacity:1;stroke:url(#linearGradient1550);stroke-width:0.264583px;stroke-linecap:butt;stroke-linejoin:miter;stroke-opacity:1"
       clip-path="url(#clipPath1467-3)"
       inkscape:export-filename="/home/fjss23/avatar.svg.png"
       inkscape:export-xdpi="93.353203"
       inkscape:export-ydpi="93.353203"
       transform="matrix(1.5107519,0,0,1.5107519,-512.57253,-13.52951)" />
    <path
       id="path1474"
       d="m 393.02321,109.37731 -13.62754,3.72725 -12.46352,4.60684 -4.57535,5.55498 -10.49187,10.0686"
       style="fill:#ffffff;fill-opacity:1;stroke:url(#linearGradient1552);stroke-width:0.264583px;stroke-linecap:butt;stroke-linejoin:miter;stroke-opacity:1"
       clip-path="url(#clipPath1463-6)"
       inkscape:export-filename="/home/fjss23/avatar.svg.png"
       inkscape:export-xdpi="93.353203"
       inkscape:export-ydpi="93.353203"
       transform="matrix(1.5107519,0,0,1.5107519,-512.57253,-13.52951)" />
    <path
       id="path1476"
       d="m 391.0147,111.21935 -16.86948,6.23404 c 0,0 -12.8715,5.97737 -13.65422,6.06281 -0.78272,0.0854 -9.64827,4.23236 -9.64827,4.23236 l -2.476,-0.5564"
       style="fill:#ffffff;fill-opacity:1;stroke:url(#linearGradient1554);stroke-width:0.264583px;stroke-linecap:butt;stroke-linejoin:miter;stroke-opacity:1"
       clip-path="url(#clipPath1459-9)"
       inkscape:export-filename="/home/fjss23/avatar.svg.png"
       inkscape:export-xdpi="93.353203"
       inkscape:export-ydpi="93.353203"
       transform="matrix(1.5107519,0,0,1.5107519,-512.57253,-13.52951)" />
    <path
       id="path1478"
       d="m 391.84841,109.22586 -19.28243,2.54356 -5.93404,4.13175 -7.17672,10.31582"
       style="fill:#ffffff;fill-opacity:1;stroke:url(#linearGradient1556);stroke-width:0.264583px;stroke-linecap:butt;stroke-linejoin:miter;stroke-opacity:1"
       clip-path="url(#clipPath1455-3)"
       inkscape:export-filename="/home/fjss23/avatar.svg.png"
       inkscape:export-xdpi="93.353203"
       inkscape:export-ydpi="93.353203"
       transform="matrix(1.5107519,0,0,1.5107519,-512.57253,-13.52951)" />
    <path
       id="path1480"
       d="m 397.85027,109.93682 -18.32967,11.27945 -15.58275,13.45069 -4.19165,6.55127"
       style="fill:#ffffff;fill-opacity:1;stroke:url(#linearGradient1558);stroke-width:0.264583px;stroke-linecap:butt;stroke-linejoin:miter;stroke-opacity:1"
       clip-path="url(#clipPath1451-8)"
       inkscape:export-filename="/home/fjss23/avatar.svg.png"
       inkscape:export-xdpi="93.353203"
       inkscape:export-ydpi="93.353203"
       transform="matrix(1.5107519,0,0,1.5107519,-512.57253,-13.52951)" />
    <path
       id="path1482"
       d="m 397.25787,113.92338 -6.34849,9.99653 -1.94668,4.21867"
       style="fill:#ffffff;fill-opacity:1;stroke:url(#linearGradient1560);stroke-width:0.264583px;stroke-linecap:butt;stroke-linejoin:miter;stroke-opacity:1"
       clip-path="url(#clipPath1447-7)"
       inkscape:export-filename="/home/fjss23/avatar.svg.png"
       inkscape:export-xdpi="93.353203"
       inkscape:export-ydpi="93.353203"
       transform="matrix(1.5107519,0,0,1.5107519,-512.57253,-13.52951)" />
    <path
       id="path1484"
       d="m 394.2644,114.12864 -7.64176,10.94399 -3.41817,10.0256"
       style="fill:#ffffff;fill-opacity:1;stroke:url(#linearGradient1562);stroke-width:0.264583px;stroke-linecap:butt;stroke-linejoin:miter;stroke-opacity:1"
       clip-path="url(#clipPath1443-6)"
       inkscape:export-filename="/home/fjss23/avatar.svg.png"
       inkscape:export-xdpi="93.353203"
       inkscape:export-ydpi="93.353203"
       transform="matrix(1.5107519,0,0,1.5107519,-512.57253,-13.52951)" />
    <path
       id="path1486"
       d="m 394.19588,112.42456 -11.66668,11.61144 -3.49725,8.60345 -1.9638,6.2801"
       style="fill:#ffffff;fill-opacity:1;stroke:url(#linearGradient1564);stroke-width:0.264583px;stroke-linecap:butt;stroke-linejoin:miter;stroke-opacity:1"
       clip-path="url(#clipPath1439-6)"
       inkscape:export-filename="/home/fjss23/avatar.svg.png"
       inkscape:export-xdpi="93.353203"
       inkscape:export-ydpi="93.353203"
       transform="matrix(1.5107519,0,0,1.5107519,-512.57253,-13.52951)" />
    <path
       id="path1488"
       d="m 391.85014,112.32837 -8.95623,11.05288 -5.08626,8.93437 -1.96038,4.2133"
       style="fill:#ffffff;fill-opacity:1;stroke:url(#linearGradient1566);stroke-width:0.264583px;stroke-linecap:butt;stroke-linejoin:miter;stroke-opacity:1"
       clip-path="url(#clipPath1435-7)"
       inkscape:export-filename="/home/fjss23/avatar.svg.png"
       inkscape:export-xdpi="93.353203"
       inkscape:export-ydpi="93.353203"
       transform="matrix(1.5107519,0,0,1.5107519,-512.57253,-13.52951)" />
    <path
       id="path1490"
       d="m 389.32082,113.21655 -12.58192,8.84921 -7.61066,8.16069 -6.66238,9.92844"
       style="fill:#ffffff;fill-opacity:1;stroke:url(#linearGradient1568);stroke-width:0.264583px;stroke-linecap:butt;stroke-linejoin:miter;stroke-opacity:1"
       clip-path="url(#clipPath1431-0)"
       inkscape:export-filename="/home/fjss23/avatar.svg.png"
       inkscape:export-xdpi="93.353203"
       inkscape:export-ydpi="93.353203"
       transform="matrix(1.5107519,0,0,1.5107519,-512.57253,-13.52951)" />
    <path
       id="path1492"
       d="m 396.06083,110.54485 -25.42126,24.3991 -2.19852,9.27542"
       style="fill:#ffffff;fill-opacity:1;stroke:url(#linearGradient1570);stroke-width:0.264583px;stroke-linecap:butt;stroke-linejoin:miter;stroke-opacity:1"
       clip-path="url(#clipPath1427-4)"
       inkscape:export-filename="/home/fjss23/avatar.svg.png"
       inkscape:export-xdpi="93.353203"
       inkscape:export-ydpi="93.353203"
       transform="matrix(1.5107519,0,0,1.5107519,-512.57253,-13.52951)" />
    <path
       id="path1494"
       d="m 354.25277,175.73302 -4.73936,-2.04948 -2.60067,-3.19039 0.74771,-3.21461 3.49453,-4.21059 5.87062,-5.55993 0.63328,-5.66481 -0.30954,-7.95509 -2.83852,-3.29169"
       style="fill:#ffffff;fill-opacity:1;stroke:url(#linearGradient1572);stroke-width:0.264583px;stroke-linecap:butt;stroke-linejoin:miter;stroke-opacity:1"
       clip-path="url(#clipPath1423-3)"
       inkscape:export-filename="/home/fjss23/avatar.svg.png"
       inkscape:export-xdpi="93.353203"
       inkscape:export-ydpi="93.353203"
       transform="matrix(1.5107519,0,0,1.5107519,-512.57253,-13.52951)" />
    <path
       id="path1496"
       d="m 432.82257,166.56142 c 0.97762,-0.18012 11.04609,2.03844 11.04609,2.03844 0,0 4.27379,-1.78229 5.56982,-0.73808 l -3.74236,0.30213 -2.97444,0.0551 -3.31476,-0.6664 -4.26858,-1.5087 -4.11129,-0.33395 -7.69642,-3.05482 -6.48863,-0.88314 -25.31809,-7.03548 34.90104,9.79976"
       style="fill:#ffffff;fill-opacity:1;stroke:url(#linearGradient1574);stroke-width:0.264583px;stroke-linecap:butt;stroke-linejoin:miter;stroke-opacity:1"
       clip-path="url(#clipPath1419-5)"
       sodipodi:nodetypes="cccccccccccc"
       inkscape:export-filename="/home/fjss23/avatar.svg.png"
       inkscape:export-xdpi="93.353203"
       inkscape:export-ydpi="93.353203"
       transform="matrix(1.5107519,0,0,1.5107519,-512.57253,-13.52951)" />
    <path
       id="path1498"
       d="m 414.39888,157.88919 2.12224,-3.11221 2.40543,-6.14156"
       style="fill:#ffffff;fill-opacity:1;stroke:url(#linearGradient1576);stroke-width:0.264583px;stroke-linecap:butt;stroke-linejoin:miter;stroke-opacity:1"
       clip-path="url(#clipPath1415-2)"
       inkscape:export-filename="/home/fjss23/avatar.svg.png"
       inkscape:export-xdpi="93.353203"
       inkscape:export-ydpi="93.353203"
       transform="matrix(1.5107519,0,0,1.5107519,-512.57253,-13.52951)" />
    <path
       id="path1500"
       d="m 437.74787,155.25561 -1.78553,3.41104 -1.78256,2.79899 -1.36452,1.5797"
       style="fill:#ffffff;fill-opacity:1;stroke:url(#linearGradient1578);stroke-width:0.264583px;stroke-linecap:butt;stroke-linejoin:miter;stroke-opacity:1"
       clip-path="url(#clipPath1411-9)"
       inkscape:export-filename="/home/fjss23/avatar.svg.png"
       inkscape:export-xdpi="93.353203"
       inkscape:export-ydpi="93.353203"
       transform="matrix(1.5107519,0,0,1.5107519,-512.57253,-13.52951)" />
    <path
       id="path1502"
       d="m 401.53301,104.83681 0.92308,1.10778 2.43727,0.397 1.53184,1.31001 0.46972,0.64057 0.48773,-0.60693 0.81454,-1.30188 1.4949,-0.2429 1.46346,-0.45111 0.17186,-0.39298 v -0.0763 l 0.38048,-0.63081 -0.0533,-1.62863 -1.02049,-0.68223 -4.19894,0.93498 -1.91677,-0.13152 -1.32573,-0.36245 -1.10318,0.32438 -0.88471,1.29241 z"
       style="fill:#457b9d;fill-opacity:1;stroke:#000000;stroke-width:0.264583px;stroke-linecap:butt;stroke-linejoin:miter;stroke-opacity:1"
       clip-path="url(#clipPath1407-0)"
       inkscape:export-filename="/home/fjss23/avatar.svg.png"
       inkscape:export-xdpi="93.353203"
       inkscape:export-ydpi="93.353203"
       transform="matrix(1.5107519,0,0,1.5107519,-512.57253,-13.52951)" />
    <path
       id="path1504"
       d="m 354.23677,159.33561 2.25916,-2.11718 0.60156,-5.07138 0.80246,-1.40625 0.90461,-7.9422 -6.0327,-3.09855 z"
       style="fill:#000000;stroke:#000000;stroke-width:0.264583px;stroke-linecap:butt;stroke-linejoin:miter;stroke-opacity:1"
       clip-path="url(#clipPath1395-0)"
       inkscape:export-filename="/home/fjss23/avatar.svg.png"
       inkscape:export-xdpi="93.353203"
       inkscape:export-ydpi="93.353203"
       transform="matrix(1.5107519,0,0,1.5107519,-512.57253,-13.52951)" />
    <path
       id="path1506"
       d="m 354.34961,159.57447 2.36582,-2.05233 0.74555,-5.24534 -0.0439,-0.7197 z"
       style="fill:#000000;stroke:#000000;stroke-width:0.264583px;stroke-linecap:butt;stroke-linejoin:miter;stroke-opacity:1"
       clip-path="url(#clipPath1391-35)"
       inkscape:export-filename="/home/fjss23/avatar.svg.png"
       inkscape:export-xdpi="93.353203"
       inkscape:export-ydpi="93.353203"
       transform="matrix(1.5107519,0,0,1.5107519,-512.57253,-13.52951)" />
    <path
       style="fill:#000000;stroke:#000000;stroke-width:0.39972px;stroke-linecap:butt;stroke-linejoin:miter;stroke-opacity:1"
       d="m 22.548653,228.24325 -2.17596,3.38561 -2.40351,6.21247 0.12831,4.73167 -0.17381,3.9542 1.68256,2.90315 2.8486,2.3753 0.29132,0.33655 -6.47358,-2.21738 -6.9416403,-4.42333 0.53311,-8.55146 3.5005603,-5.62027 5.0312,-1.55203 z"
       id="path1508"
       inkscape:export-filename="/home/fjss23/avatar.svg.png"
       inkscape:export-xdpi="93.353203"
       inkscape:export-ydpi="93.353203" />
    <path
       style="fill:#000000;stroke:#000000;stroke-width:0.39972px;stroke-linecap:butt;stroke-linejoin:miter;stroke-opacity:1"
       d="m 22.921013,228.77851 -1.85018,2.53333 -1.34404,4.03051 -0.91882,2.02274 -0.32601,3.61346 -0.0295,4.81261 0.65641,1.4832 1.1071,1.79636 1.97377,1.68603 0.53598,0.79027 4.6525,-14.47004 c 0,0 2.118842,-6.2357 0.313573,-6.7919 -1.805367,-0.5562 -4.772003,-1.50657 -4.772003,-1.50657 z"
       id="path1510"
       inkscape:export-filename="/home/fjss23/avatar.svg.png"
       inkscape:export-xdpi="93.353203"
       inkscape:export-ydpi="93.353203" />
    <path
       style="fill:none;stroke:#000000;stroke-width:0.39972px;stroke-linecap:butt;stroke-linejoin:miter;stroke-opacity:1"
       d="M -2.4303873,203.14158 C 53.546493,216.10559 42.793601,241.74109 42.793601,241.74109"
       id="path1512"
       inkscape:export-filename="/home/fjss23/avatar.svg.png"
       inkscape:export-xdpi="93.353203"
       inkscape:export-ydpi="93.353203" />
    <path
       style="fill:#000000;stroke:#000000;stroke-width:0.39972px;stroke-linecap:butt;stroke-linejoin:miter;stroke-opacity:1"
       d="M 3.2856727,203.38217 52.94645,219.21096 42.409753,247.91259 23.323223,252.37422 0.83905271,239.35979 Z"
       id="path1514"
       inkscape:export-filename="/home/fjss23/avatar.svg.png"
       inkscape:export-xdpi="93.353203"
       inkscape:export-ydpi="93.353203" />
  </g>
</svg>
